<svg xmlns="http://www.w3.org/2000/svg" xmlns:xlink="http://www.w3.org/1999/xlink" version="1.1" id="Layer_1" x="0px" y="0px" width="960px" height="560px" viewBox="0 0 960 560" enable-background="new 0 0 960 560" xml:space="preserve"><style>.style0{fill:	#FFFFFF;}</style><g><path d="M76.217 137.77v8h-18v24h-8v-32H76.217z M57.25 149.77H71v8H57.25V149.77z"/></g><g><path d="M79.476 169.77v-20.16h16.38v20.16h-5.04v-15.12h-6.3v15.12H79.476z M87.036 157.17h1.26v5.04h-1.26V157.17z"/></g><g><path d="M98.376 149.61h16.38v5.04h-11.34l2.52 2.52h3.402l5.418 5.418v7.182h-16.38v-5.04h11.34l-2.52-2.52h-3.402l-5.418-5.418 V149.61z"/></g><g><path d="M122.316 149.61v20.16h-5.04v-20.16H122.316z M133.656 149.61v7.182l-2.898 2.898l2.898 2.898v7.182h-5.04v-5.04 l-5.04-5.04l5.04-5.04v-5.04H133.656z"/></g><g><path d="M136.176 169.77v-20.16h16.38v20.16h-5.04v-15.12h-6.3v15.12H136.176z M143.736 157.17h1.26v5.04h-1.26V157.17z"/></g><g><path d="M155.816 137.77h26v8h-26V137.77z M172.816 145.77v24h-8v-24H172.816z" class="style0"/></g><g><path d="M185.075 149.61h16.38v5.04h-11.34v10.08h11.34v5.04h-16.38V149.61z M192.635 157.17h8.82v5.04h-8.82 V157.17z" class="style0"/></g><g><path d="M220.355 149.61v5.04h-11.34v10.08h11.34v5.04h-16.38v-20.16H220.355z" class="style0"/></g><g><path d="M227.915 149.61v20.16h-5.04v-20.16H227.915z M230.435 157.17h1.26v5.04h-1.26V157.17z M239.255 149.61 v20.16h-5.04v-20.16H239.255z" class="style0"/></g><path d="M39.704 170.507l-20.668-8.615v-4.383l20.668-8.637v5.68l-12.767 5.149l12.767 5.113V170.507z" class="style0"/><path d="M249.949 148.873l20.668 8.594v4.404l-20.668 8.637v-5.68l12.756-5.144l-12.756-5.118V148.873z"/></svg>